<svg width="14" height="12" viewBox="0 0 14 12" fill="none" xmlns="http://www.w3.org/2000/svg">
<path fill-rule="evenodd" clip-rule="evenodd" d="M10.3661 4.76196C10.0829 4.76196 9.8504 4.53986 9.8504 4.2662C9.8504 3.99254 10.0768 3.77044 10.3599 3.77044H10.3661C10.6493 3.77044 10.8791 3.99254 10.8791 4.2662C10.8791 4.53986 10.6493 4.76196 10.3661 4.76196ZM7.00034 9.15372C5.5312 9.15372 4.33632 7.99827 4.33632 6.57842C4.33632 5.15922 5.5312 4.00444 7.00034 4.00444C8.46948 4.00444 9.66436 5.15922 9.66436 6.57842C9.66436 7.99827 8.46948 9.15372 7.00034 9.15372ZM10.8435 2.03595C10.7279 2.00091 10.5597 1.92754 10.4181 1.77749C10.3593 1.71536 10.2799 1.56002 10.2033 1.41063C9.99676 1.00675 9.71429 0.454146 9.14592 0.222792C8.41545 -0.0733406 5.61122 -0.0746627 4.85682 0.22147C4.29597 0.444231 4.01008 0.999481 3.80147 1.40468C3.72281 1.55671 3.64211 1.71403 3.58192 1.77749C3.44102 1.9282 3.27277 2.00091 3.16812 2.0333C0.913111 2.63614 0.5 4.05269 0.5 6.62403C0.5 10.3416 1.43839 12 7.00034 12C12.5616 12 13.5 10.3416 13.5 6.62403C13.5 4.05269 13.0876 2.63614 10.8435 2.03595Z" fill="#63C48C"/>
<path fill-rule="evenodd" clip-rule="evenodd" d="M7.00043 4.99562C6.09692 4.99562 5.36235 5.70555 5.36235 6.57874C5.36235 7.45194 6.09692 8.16186 7.00043 8.16186C7.90394 8.16186 8.63851 7.45194 8.63851 6.57874C8.63851 5.70555 7.90394 4.99562 7.00043 4.99562Z" fill="#63C48C"/>
</svg>
