<svg width="15" height="12" viewBox="0 0 15 12" fill="none" xmlns="http://www.w3.org/2000/svg">
<path fill-rule="evenodd" clip-rule="evenodd" d="M7.5 4.1449C6.47713 4.1449 5.64499 4.97699 5.64499 5.99981C5.64499 7.02262 6.47713 7.85472 7.5 7.85472C8.52286 7.85472 9.355 7.02262 9.355 5.99981C9.355 4.97699 8.52286 4.1449 7.5 4.1449Z" fill="#1877F2"/>
<path fill-rule="evenodd" clip-rule="evenodd" d="M7.5 9.00849C5.84111 9.00849 4.49139 7.65884 4.49139 6.00003C4.49139 4.34122 5.84111 2.99157 7.5 2.99157C9.15889 2.99157 10.5086 4.34122 10.5086 6.00003C10.5086 7.65884 9.15889 9.00849 7.5 9.00849ZM7.5 3.05176e-05C3.34547 3.05176e-05 0 3.28227 0 6.00003C0 8.71779 3.34547 12 7.5 12C11.6545 12 15 8.71779 15 6.00003C15 3.28227 11.6545 3.05176e-05 7.5 3.05176e-05Z" fill="#1877F2"/>
</svg>
