<svg width="18" height="12" viewBox="0 0 18 12" fill="none" xmlns="http://www.w3.org/2000/svg">
<path fill-rule="evenodd" clip-rule="evenodd" d="M16.9406 1.9071C16.3151 1.22831 14.3903 2.44851 13.2996 3.22427C13.4841 4.02427 13.5723 4.95356 13.5723 6.00407C13.5723 7.04649 13.4841 7.95962 13.3076 8.75962C14.1818 9.38184 15.6093 10.295 16.4434 10.295C16.6519 10.295 16.8283 10.2384 16.9406 10.1091C17.6865 9.30912 17.6865 2.71518 16.9406 1.9071Z" fill="#F31954"/>
<path fill-rule="evenodd" clip-rule="evenodd" d="M6.44268 3.05176e-05C2.05584 3.05176e-05 0.5 1.57579 0.5 6.00407C0.5 10.4324 2.05584 12 6.44268 12C10.8215 12 12.3693 10.4324 12.3693 6.00407C12.3693 1.57579 10.8215 3.05176e-05 6.44268 3.05176e-05Z" fill="#F31954"/>
</svg>
